<?xml version="1.0" encoding="UTF-8"?>
<svg version="1.1" xmlns="http://www.w3.org/2000/svg" width="134" height="134">
<path d="M0 0 C4.05702692 3.10125287 7.47652411 6.76367107 10.9375 10.5 C11.88930009 11.50058126 12.84306285 12.49929939 13.79882812 13.49609375 C15.53903699 15.31228883 17.26983191 17.13758396 18.98803711 18.97460938 C20.83706846 21.05160973 20.83706846 21.05160973 23 22 C22.52470993 26.27761063 20.2331694 28.34161627 17 31 C14.1875 32.25 14.1875 32.25 11 32 C7.1473996 29.38440476 3.95289497 26.19880335 1.0625 22.5625 C-1.79029717 20.40129002 -3.94310071 20.13866119 -7.48828125 20.28515625 C-13.7964033 22.08046937 -18.76678135 28.07501946 -22.625 33.1875 C-24.32457647 36.66390642 -24.83879461 38.18729724 -24 42 C-21.94708361 44.9525768 -19.51037655 47.43547808 -17 50 C-16.42507812 50.68191406 -15.85015625 51.36382812 -15.2578125 52.06640625 C-12.42980945 55.2918936 -10.35274171 57.44781616 -5.9375 57.75 C-1.50518362 57.338489 0.88867726 55.11132274 4 52 C8.80555556 47.19444444 8.80555556 47.19444444 12.6875 46.5625 C17.38256937 47.1826035 19.72310305 49.74249297 23 53 C22.44401431 56.90685162 20.67367852 58.7004113 17.921875 61.44140625 C16.67470703 62.68760742 16.67470703 62.68760742 15.40234375 63.95898438 C14.52707031 64.81814453 13.65179688 65.67730469 12.75 66.5625 C11.89019531 67.42552734 11.03039062 68.28855469 10.14453125 69.17773438 C0.68169407 78.56037802 0.68169407 78.56037802 -5.8125 79.625 C-9.25565004 79.45530076 -10.87027685 78.61136374 -13.390625 76.296875 C-14.08389893 75.66152832 -14.77717285 75.02618164 -15.49145508 74.37158203 C-16.3192749 73.58895996 -17.14709473 72.80633789 -18 72 C-18.75136734 71.29614166 -18.75136734 71.29614166 -19.51791382 70.57806396 C-23.08035207 67.23603804 -26.5958073 63.84982815 -30.08422852 60.43066406 C-31.32440885 59.22234187 -32.57256768 58.02215719 -33.82836914 56.83007812 C-35.66439324 55.08553279 -37.47261496 53.3158963 -39.27734375 51.5390625 C-39.83767807 51.01688141 -40.39801239 50.49470032 -40.97532654 49.95669556 C-44.61660047 46.2968606 -45.91554221 43.2654441 -46.15052795 38.07778931 C-45.70979591 31.99421274 -40.11792247 27.82696842 -36.03125 23.765625 C-35.35453247 23.08699402 -34.67781494 22.40836304 -33.98059082 21.70916748 C-32.55413416 20.28135385 -31.12516478 18.85604667 -29.69384766 17.43310547 C-27.50058249 15.25057964 -25.31822506 13.05755352 -23.13671875 10.86328125 C-21.74803695 9.47592048 -20.35873518 8.08917993 -18.96875 6.703125 C-18.31555786 6.0458844 -17.66236572 5.3886438 -16.98937988 4.71148682 C-16.37864624 4.1070575 -15.7679126 3.50262817 -15.13867188 2.87988281 C-14.60367065 2.34647278 -14.06866943 1.81306274 -13.51745605 1.26348877 C-9.5373951 -2.05045386 -4.6069041 -1.62872984 0 0 Z " fill="#0091B7" transform="translate(61,41)"/>
<path d="M0 0 C2.82263215 1.41131608 4.41139152 3.09889152 6.625 5.3125 C8.45933298 6.28176228 8.45933298 6.28176228 10.625 6.3125 C13.06858254 4.62953171 15.1266468 2.69098495 17.30859375 0.68359375 C19.625 -0.6875 19.625 -0.6875 22.16796875 -0.14453125 C24.76701039 1.39671284 26.50788072 2.92178494 28.5 5.1875 C29.11617188 5.86554687 29.73234375 6.54359375 30.3671875 7.2421875 C31.625 9.3125 31.625 9.3125 31.484375 11.33984375 C29.9028557 14.97014941 27.61773363 17.73486589 24.625 20.3125 C21.0625 21.5625 21.0625 21.5625 17.625 21.3125 C15.93737149 19.6670622 14.2709651 17.99961423 12.625 16.3125 C8.91499282 15.89418596 8.91499282 15.89418596 5.625 16.3125 C5.2964324 19.33140912 5.2964324 19.33140912 7.18554688 21.10253906 C7.89775391 21.75448242 8.60996094 22.40642578 9.34375 23.078125 C10.11074219 23.80386719 10.87773438 24.52960938 11.66796875 25.27734375 C13.29821911 26.79355434 14.93620961 28.30148745 16.58203125 29.80078125 C22.37431963 35.32049135 22.37431963 35.32049135 23.5390625 39.9296875 C22.28120018 44.58485317 19.95757871 46.9403826 16.5 50.1875 C15.93023437 50.76757812 15.36046875 51.34765625 14.7734375 51.9453125 C12.05496993 54.58964004 10.08495628 56.15483311 6.45703125 57.3984375 C2.93940552 57.29169575 1.92009711 56.50049956 -0.5625 54.0625 C-1.21605469 53.43859375 -1.86960938 52.8146875 -2.54296875 52.171875 C-3.67948768 51.0183931 -4.79499944 49.84328187 -5.875 48.63671875 C-8.07665316 46.69307182 -10.45921107 46.44047919 -13.31640625 46.18359375 C-16.83861264 46.40414937 -18.76598779 48.05926218 -21.375 50.3125 C-22.71794481 51.97143182 -24.05244688 53.63726605 -25.375 55.3125 C-27.78261436 57.02112954 -28.80993668 57.37466624 -31.75390625 57.05078125 C-38.20813215 55.23282492 -43.56206866 48.6274952 -47.375 43.3125 C-48.375 40.75 -48.375 40.75 -48.375 38.3125 C-46.31582477 34.32159036 -43.68683841 31.26842636 -40.5625 28.0625 C-39.73105469 27.19109375 -38.89960937 26.3196875 -38.04296875 25.421875 C-35.02046374 23.03219314 -33.19027215 22.49643185 -29.375 22.3125 C-24.77004564 24.22187132 -22.42962803 27.53440744 -19.375 31.3125 C-15.70687819 33.75791454 -12.63819633 34.15348209 -8.375 33.3125 C-5.45709475 31.0620803 -5.45709475 31.0620803 -3.375 28.3125 C-2.715 27.6525 -2.055 26.9925 -1.375 26.3125 C-1.31139153 23.84556763 -1.31139153 23.84556763 -2.375 21.3125 C-4.85043075 19.07826507 -7.48712582 17.27797769 -10.22265625 15.375 C-12.375 13.3125 -12.375 13.3125 -12.92578125 10.828125 C-12.21180718 7.56713703 -10.92627924 6.32472477 -8.5 4.0625 C-7.78070313 3.37671875 -7.06140625 2.6909375 -6.3203125 1.984375 C-3.00070141 -0.86862409 -3.00070141 -0.86862409 0 0 Z " fill="#00BED4" transform="translate(86.375,40.6875)"/>
<path d="M0 0 C3.53443695 1.34645217 5.32033287 3.0174896 7.625 6 C7.75 8.5625 7.75 8.5625 6.625 11 C4.1606399 13.60126899 2.7554556 14.94347722 -0.875 15.125 C-4.48628778 13.4999205 -6.0196317 11.16292315 -8.375 8 C-3.83445946 0 -3.83445946 0 0 0 Z " fill="#00FFFF" transform="translate(106.375,13)"/>
</svg>
