<?xml version="1.0" encoding="UTF-8"?>
<svg xmlns="http://www.w3.org/2000/svg" xmlns:xlink="http://www.w3.org/1999/xlink" width="44px" height="44px" viewBox="0 0 44 44" version="1.1">
<g id="surface1">
<path style=" stroke:none;fill-rule:nonzero;fill:rgb(0%,56.862745%,71.764706%);fill-opacity:1;" d="M 20.414062 14.167969 C 20.675781 14.386719 20.917969 14.621094 21.15625 14.859375 C 21.222656 14.929688 21.292969 14.996094 21.363281 15.066406 C 21.585938 15.285156 21.804688 15.507812 22.027344 15.726562 C 22.179688 15.882812 22.335938 16.035156 22.492188 16.191406 C 22.8125 16.511719 23.136719 16.835938 23.457031 17.160156 C 23.789062 17.492188 24.121094 17.820312 24.453125 18.152344 C 24.855469 18.550781 25.257812 18.953125 25.65625 19.355469 C 25.808594 19.507812 25.964844 19.660156 26.117188 19.8125 C 26.332031 20.023438 26.542969 20.238281 26.753906 20.449219 C 26.851562 20.542969 26.851562 20.542969 26.949219 20.640625 C 27.003906 20.699219 27.0625 20.757812 27.121094 20.816406 C 27.171875 20.867188 27.222656 20.917969 27.273438 20.96875 C 27.367188 21.121094 27.367188 21.121094 27.351562 21.296875 C 27.230469 21.59375 27.003906 21.804688 26.785156 22.03125 C 26.738281 22.085938 26.6875 22.136719 26.640625 22.1875 C 26.015625 22.84375 25.265625 23.628906 24.300781 23.6875 C 22.816406 23.5625 21.746094 22.132812 20.847656 21.078125 C 20.796875 21.019531 20.746094 20.960938 20.695312 20.898438 C 20.039062 20.144531 19.253906 19.761719 18.253906 19.691406 C 16.878906 19.714844 16.03125 20.445312 15.105469 21.378906 C 15.019531 21.460938 14.933594 21.546875 14.847656 21.632812 C 14.671875 21.808594 14.496094 21.984375 14.320312 22.160156 C 14.097656 22.382812 13.871094 22.609375 13.644531 22.832031 C 13.472656 23.003906 13.296875 23.179688 13.121094 23.351562 C 13 23.476562 12.878906 23.597656 12.753906 23.71875 C 12.058594 24.425781 11.625 25.132812 11.613281 26.144531 C 11.6875 27.65625 12.5 28.539062 13.523438 29.574219 C 13.59375 29.648438 13.664062 29.71875 13.738281 29.792969 C 13.886719 29.941406 14.035156 30.09375 14.183594 30.242188 C 14.410156 30.46875 14.632812 30.699219 14.855469 30.929688 C 15.003906 31.074219 15.148438 31.222656 15.292969 31.367188 C 15.359375 31.433594 15.425781 31.503906 15.492188 31.574219 C 16.222656 32.296875 17.058594 32.742188 18.089844 32.761719 C 19.097656 32.757812 19.871094 32.402344 20.585938 31.703125 C 20.8125 31.472656 21.027344 31.238281 21.234375 30.992188 C 22.023438 30.089844 22.792969 29.210938 24.046875 29.039062 C 24.894531 29.007812 25.570312 29.34375 26.214844 29.882812 C 26.375 30.035156 26.519531 30.195312 26.664062 30.359375 C 26.730469 30.433594 26.792969 30.507812 26.859375 30.582031 C 27.242188 31.03125 27.242188 31.03125 27.367188 31.238281 C 27.332031 31.535156 27.222656 31.679688 27.019531 31.886719 C 26.960938 31.945312 26.90625 32 26.847656 32.058594 C 26.789062 32.121094 26.726562 32.183594 26.660156 32.246094 C 26.597656 32.3125 26.53125 32.375 26.464844 32.445312 C 26.25 32.660156 26.035156 32.875 25.820312 33.089844 C 25.671875 33.238281 25.519531 33.390625 25.371094 33.539062 C 25.058594 33.855469 24.742188 34.171875 24.425781 34.484375 C 24.023438 34.886719 23.621094 35.289062 23.222656 35.691406 C 22.914062 36.003906 22.601562 36.3125 22.292969 36.621094 C 22.144531 36.769531 21.996094 36.917969 21.847656 37.066406 C 21.640625 37.277344 21.433594 37.484375 21.222656 37.691406 C 21.164062 37.753906 21.105469 37.8125 21.042969 37.875 C 20.308594 38.601562 19.398438 39.183594 18.34375 39.203125 C 18.277344 39.199219 18.210938 39.199219 18.144531 39.199219 C 18.074219 39.199219 18.007812 39.195312 17.933594 39.195312 C 16.222656 39.148438 15.117188 37.835938 13.984375 36.699219 C 13.910156 36.625 13.832031 36.550781 13.757812 36.472656 C 13.554688 36.269531 13.351562 36.070312 13.152344 35.867188 C 12.9375 35.652344 12.726562 35.441406 12.511719 35.230469 C 12.15625 34.871094 11.800781 34.515625 11.441406 34.160156 C 11.03125 33.746094 10.621094 33.335938 10.210938 32.925781 C 9.855469 32.570312 9.5 32.214844 9.144531 31.863281 C 8.933594 31.648438 8.722656 31.4375 8.511719 31.226562 C 8.277344 30.992188 8.042969 30.757812 7.808594 30.523438 C 7.738281 30.453125 7.667969 30.386719 7.597656 30.3125 C 7.238281 29.953125 6.894531 29.585938 6.5625 29.195312 C 6.417969 29.035156 6.265625 28.890625 6.105469 28.742188 C 5.453125 28.101562 5.195312 27.230469 5.160156 26.339844 C 5.1875 24.839844 5.992188 23.886719 7.007812 22.878906 C 7.101562 22.785156 7.195312 22.6875 7.289062 22.59375 C 7.542969 22.339844 7.796875 22.085938 8.050781 21.832031 C 8.265625 21.617188 8.476562 21.402344 8.691406 21.191406 C 9.191406 20.6875 9.695312 20.183594 10.199219 19.679688 C 10.71875 19.164062 11.234375 18.648438 11.75 18.128906 C 12.195312 17.679688 12.640625 17.234375 13.085938 16.789062 C 13.351562 16.523438 13.617188 16.257812 13.882812 15.992188 C 14.132812 15.742188 14.382812 15.492188 14.632812 15.242188 C 14.722656 15.152344 14.816406 15.0625 14.90625 14.96875 C 16.515625 13.34375 18.433594 12.808594 20.414062 14.167969 Z M 20.414062 14.167969 "/>
<path style=" stroke:none;fill-rule:nonzero;fill:rgb(0%,74.117647%,83.137255%);fill-opacity:1;" d="M 28.335938 13.550781 C 28.675781 13.734375 28.90625 14.019531 29.160156 14.300781 C 30.050781 15.339844 30.050781 15.339844 31.289062 15.839844 C 31.933594 15.875 32.335938 15.640625 32.8125 15.222656 C 33.214844 14.847656 33.582031 14.441406 33.941406 14.027344 C 34.203125 13.757812 34.425781 13.578125 34.800781 13.515625 C 34.871094 13.515625 34.945312 13.511719 35.019531 13.511719 C 35.089844 13.511719 35.160156 13.511719 35.234375 13.507812 C 35.761719 13.609375 36.148438 14.03125 36.515625 14.394531 C 36.5625 14.441406 36.609375 14.488281 36.660156 14.535156 C 36.757812 14.632812 36.859375 14.734375 36.957031 14.832031 C 37.109375 14.980469 37.261719 15.128906 37.414062 15.277344 C 37.507812 15.375 37.605469 15.46875 37.703125 15.566406 C 37.75 15.609375 37.792969 15.652344 37.839844 15.699219 C 38.160156 16.023438 38.355469 16.359375 38.457031 16.808594 C 38.421875 17.792969 37.367188 18.53125 36.722656 19.171875 C 36.640625 19.257812 36.558594 19.339844 36.472656 19.425781 C 36.394531 19.503906 36.316406 19.585938 36.234375 19.667969 C 36.125 19.773438 36.125 19.773438 36.015625 19.886719 C 35.632812 20.226562 35.316406 20.289062 34.8125 20.277344 C 34.414062 20.210938 34.167969 19.984375 33.878906 19.710938 C 33.824219 19.660156 33.769531 19.609375 33.710938 19.554688 C 33.484375 19.335938 33.28125 19.121094 33.09375 18.863281 C 32.785156 18.511719 32.386719 18.277344 31.945312 18.128906 C 30.996094 18.0625 30.425781 18.175781 29.65625 18.742188 C 29.523438 19.003906 29.53125 19.15625 29.566406 19.449219 C 29.824219 19.910156 30.195312 20.261719 30.597656 20.597656 C 31.269531 21.164062 31.902344 21.765625 32.523438 22.382812 C 32.601562 22.457031 32.675781 22.535156 32.753906 22.609375 C 32.914062 22.769531 33.070312 22.925781 33.230469 23.085938 C 33.394531 23.246094 33.554688 23.40625 33.71875 23.566406 C 33.953125 23.800781 34.191406 24.035156 34.425781 24.269531 C 34.5 24.339844 34.570312 24.410156 34.644531 24.484375 C 35.222656 25.0625 35.597656 25.605469 35.648438 26.441406 C 35.601562 27.769531 34.195312 28.753906 33.332031 29.621094 C 33.179688 29.777344 33.027344 29.933594 32.878906 30.085938 C 32.65625 30.3125 32.433594 30.539062 32.210938 30.761719 C 32.144531 30.832031 32.078125 30.902344 32.007812 30.972656 C 31.488281 31.492188 30.929688 31.839844 30.183594 31.898438 C 29.242188 31.835938 28.675781 31.300781 28.070312 30.625 C 28.015625 30.5625 27.960938 30.5 27.902344 30.433594 C 27.699219 30.207031 27.5 29.972656 27.304688 29.738281 C 26.652344 28.960938 25.828125 28.359375 24.816406 28.160156 C 23.582031 28.066406 22.644531 28.359375 21.683594 29.136719 C 21.21875 29.542969 20.8125 29.980469 20.414062 30.449219 C 20.28125 30.601562 20.144531 30.757812 20.007812 30.910156 C 19.945312 30.980469 19.882812 31.050781 19.820312 31.125 C 19.335938 31.628906 18.929688 31.820312 18.234375 31.890625 C 17.292969 31.855469 16.6875 31.285156 16.058594 30.644531 C 15.976562 30.558594 15.890625 30.472656 15.804688 30.390625 C 15.628906 30.214844 15.453125 30.035156 15.277344 29.855469 C 15.054688 29.628906 14.828125 29.402344 14.601562 29.179688 C 14.425781 29.003906 14.253906 28.828125 14.078125 28.652344 C 13.957031 28.53125 13.832031 28.40625 13.710938 28.28125 C 13.128906 27.6875 12.761719 27.179688 12.761719 26.3125 C 12.839844 25.324219 13.550781 24.699219 14.214844 24.03125 C 14.289062 23.960938 14.359375 23.886719 14.433594 23.8125 C 14.582031 23.660156 14.734375 23.507812 14.882812 23.359375 C 15.113281 23.128906 15.339844 22.898438 15.566406 22.664062 C 15.714844 22.515625 15.863281 22.371094 16.007812 22.222656 C 16.074219 22.152344 16.144531 22.085938 16.210938 22.011719 C 16.722656 21.507812 17.265625 21.105469 17.984375 20.980469 C 18.890625 21.011719 19.421875 21.277344 20.0625 21.910156 C 20.214844 22.074219 20.359375 22.242188 20.507812 22.414062 C 21.945312 24.140625 21.945312 24.140625 23.976562 24.921875 C 25.144531 24.941406 26.070312 24.457031 26.925781 23.675781 C 27.28125 23.316406 27.585938 22.921875 27.894531 22.527344 C 27.953125 22.464844 28.007812 22.402344 28.0625 22.335938 C 28.367188 21.980469 28.511719 21.703125 28.472656 21.226562 C 28.230469 20.277344 27.097656 19.617188 26.363281 19.058594 C 24.753906 17.839844 24.753906 17.839844 24.464844 17.160156 C 24.398438 16.644531 24.511719 16.425781 24.816406 16.015625 C 24.992188 15.820312 25.175781 15.632812 25.363281 15.449219 C 25.414062 15.394531 25.46875 15.34375 25.519531 15.289062 C 25.628906 15.183594 25.738281 15.074219 25.847656 14.964844 C 26.015625 14.800781 26.183594 14.632812 26.347656 14.464844 C 26.457031 14.359375 26.5625 14.253906 26.667969 14.148438 C 26.71875 14.101562 26.765625 14.050781 26.820312 14 C 27.300781 13.523438 27.664062 13.445312 28.335938 13.550781 Z M 28.335938 13.550781 "/>
<path style=" stroke:none;fill-rule:nonzero;fill:rgb(0%,100%,100%);fill-opacity:1;" d="M 35.136719 4.519531 C 35.886719 4.777344 36.675781 5.664062 37.0625 6.339844 C 37.1875 6.628906 37.183594 6.816406 37.136719 7.128906 C 36.96875 7.398438 36.742188 7.609375 36.519531 7.832031 C 36.429688 7.929688 36.339844 8.027344 36.253906 8.128906 C 36.15625 8.234375 36.058594 8.335938 35.960938 8.441406 C 35.890625 8.519531 35.890625 8.519531 35.820312 8.597656 C 35.5 8.929688 35.238281 9.0625 34.773438 9.082031 C 34.195312 9.023438 33.722656 8.421875 33.324219 8.035156 C 33.261719 7.976562 33.195312 7.917969 33.128906 7.855469 C 32.761719 7.5 32.546875 7.222656 32.535156 6.695312 C 32.578125 6.386719 32.710938 6.21875 32.910156 5.984375 C 32.957031 5.929688 33 5.875 33.046875 5.820312 C 34.207031 4.421875 34.207031 4.421875 35.136719 4.519531 Z M 35.136719 4.519531 "/>
</g>
</svg>
